<svg width="24" height="24" xmlns="http://www.w3.org/2000/svg" xmlns:xlink="http://www.w3.org/1999/xlink">
  <defs>
    <path d="M18.72 14.206a1.936 1.936 0 0 0-.52 1.669l.644 3.916C19.045 21.01 18.115 22 17.06 22c-.278 0-.565-.069-.843-.221l-3.375-1.849a1.757 1.757 0 0 0-1.685 0l-3.375 1.849A1.748 1.748 0 0 1 6.94 22c-1.055 0-1.985-.99-1.784-2.209l.645-3.916a1.936 1.936 0 0 0-.52-1.669l-2.732-2.773c-1.074-1.091-.48-2.992 1.003-3.217l3.774-.571c.59-.089 1.1-.475 1.363-1.032l1.688-3.562A1.782 1.782 0 0 1 12 2c.646 0 1.292.35 1.624 1.051l1.688 3.562c.263.557.773.943 1.363 1.032l3.774.571c1.484.225 2.077 2.126 1.003 3.217l-2.73 2.773Z" id="a"/>
  </defs>
  <g fill="none" fill-rule="evenodd">
    <mask id="b" fill="#fff">
      <use xlink:href="#a"/>
    </mask>
    <use fill="#FFC184" xlink:href="#a"/>
    <path fill="#F59940" mask="url(#b)" d="M0 0h12v24H0z"/>
  </g>
</svg>
